<?xml version="1.0" standalone="no"?>
<!DOCTYPE svg PUBLIC "-//W3C//DTD SVG 20010904//EN"
 "http://www.w3.org/TR/2001/REC-SVG-20010904/DTD/svg10.dtd">
<svg version="1.0" xmlns="http://www.w3.org/2000/svg"
 width="74.000000pt" height="74.000000pt" viewBox="0 0 74.000000 74.000000"
 preserveAspectRatio="xMidYMid meet">
<metadata>
Created by potrace 1.11, written by Peter Selinger 2001-2013
</metadata>
<g transform="translate(0.000000,74.000000) scale(0.100000,-0.100000)"
fill="#000000" stroke="none">
<path d="M92 681 c-7 -4 -15 -32 -17 -62 -3 -30 -7 -72 -10 -94 -7 -65 -23
-318 -24 -377 -1 -31 -5 -38 -21 -38 -15 0 -20 -7 -20 -27 0 -28 0 -28 60 -25
33 2 60 7 61 10 1 4 2 41 4 82 2 41 4 75 5 75 0 0 3 41 5 92 5 103 14 205 19
210 4 4 84 -160 138 -281 22 -50 45 -94 51 -98 17 -10 60 -2 69 13 4 8 20 41
34 74 60 137 134 285 142 285 5 0 9 -12 10 -27 0 -16 3 -62 6 -103 3 -41 8
-131 11 -200 3 -68 11 -127 16 -131 6 -3 25 -3 42 0 31 7 32 8 30 61 0 30 -4
95 -8 145 -3 50 -8 119 -10 155 -3 36 -8 94 -12 130 -3 36 -7 76 -7 90 -2 40
-14 51 -52 47 -19 -3 -36 -6 -37 -8 -1 -2 -8 -15 -16 -29 -33 -58 -150 -300
-172 -357 -5 -13 -12 -23 -17 -23 -4 0 -23 35 -42 78 -19 42 -64 135 -100 207
-60 120 -67 130 -95 132 -16 1 -36 -1 -43 -6z"/>
</g>
</svg>
